<?xml version="1.0" encoding="utf-8"?>
<!-- Generator: Adobe Illustrator 23.0.3, SVG Export Plug-In . SVG Version: 6.00 Build 0)  -->
<svg version="1.1" id="Layer_1" xmlns="http://www.w3.org/2000/svg" xmlns:xlink="http://www.w3.org/1999/xlink" x="0px" y="0px"
	 viewBox="0 0 595.28 841.89" style="enable-background:new 0 0 595.28 841.89;" xml:space="preserve">
<style type="text/css">
	.st0{fill:#FFFFFF;}
	.st1{fill:#EE8423;}
	.st2{fill:#B1D0CF;}
	.st3{font-family:'CooperBlack';}
	.st4{font-size:5.451px;}
	.st5{font-family:'MyriadPro-Regular';}
</style>
<g>
	<path d="M251.63,108.22h26.85c-17.79-24.12-46.01-39.7-77.78-39.7c-53.85,0-97.5,44.77-97.5,100s43.65,100,97.5,100
		c27.6,0,52.53-11.76,70.25-30.67l-30.87-0.42"/>
	<path class="st0" d="M248.03,148.44l-7.96,89c-11.54,7.05-25,11.09-39.38,11.09c-42.79,0-77.48-35.82-77.48-80s34.69-80,77.48-80
		c19.49,0,37.3,7.44,50.93,19.7L248.03,148.44"/>
	<path class="st1" d="M414.72,116.31l-27.19,22.06H273.42c-2.91-8.05-7.04-15.48-12.15-22.06H414.72z"/>
	<path class="st2" d="M378.56,146.46l-27.2,22.06h-72.11c0.02-0.73,0.03-1.46,0.03-2.2c0-6.86-0.84-13.51-2.41-19.86H378.56z"/>
	<path class="st1" d="M340.89,179.46l-27.19,22.06h-41.53c0.18-0.43,0.37-0.86,0.54-1.3v-0.01c2.67-6.51,4.52-13.48,5.43-20.75
		H340.89z"/>
	<path class="st2" d="M303.91,208.06l-23.3,18.9l-1.66,1.35c-0.45,0.61-0.91,1.21-1.39,1.81h-27.72
		c7.39-6.11,13.68-13.58,18.49-22.06H303.91z"/>
	<ellipse class="st0" cx="200.99" cy="168.52" rx="77.49" ry="80"/>
	<g>
		<g>
			<path d="M218,168.53c0,7.21-1.84,13.98-5.08,19.89c-3.65,6.67-9.08,12.24-15.67,16.04c-5.73,3.32-12.35,5.31-19.38,5.53
				c-0.2,0.01-0.4,0.02-0.6,0.02c-0.25,0.01-0.49,0.01-0.75,0.01h-0.01v-12.91c0-0.07,0-0.13,0.01-0.2
				c0.06-3.36,1.83-6.38,4.56-8.17c0.69-0.46,1.44-0.83,2.24-1.12c7.85-2.8,13.46-10.29,13.46-19.1v-0.02c0-0.15,0-0.31-0.01-0.46
				c-0.25-10.98-9.22-19.79-20.25-19.8h-0.01v-0.48l-10.6,0.25c-1.07,0.03-2.1,0.21-3.07,0.54c-4.04,1.35-6.97,5.12-7.07,9.58
				c-0.01,0.08-0.01,0.18-0.01,0.26v0.46c0,5.65-4.5,10.25-10.14,10.38l-10.58,0.25c-0.02-0.16-0.02-0.32-0.02-0.48V169
				c-0.01-0.15-0.01-0.31-0.01-0.47v-30.39c0-5.64,4.5-10.25,10.14-10.38l10.6-0.25l20.74-0.48v0.02c7.57,0,14.64,2.02,20.74,5.55
				c6.03,3.48,11.09,8.42,14.7,14.35c3.68,6.03,5.86,13.07,6.04,20.62C218,167.89,218,168.21,218,168.53z"/>
			<path class="st1" d="M174.42,192.59c-2.19,1.44-3.6,3.85-3.65,6.55c-0.01,0.05-0.01,0.1-0.01,0.16v10.35h0.01v0.37h-0.01
				l-16.4-16.25l-0.19-0.18l-16.21-16.06l-0.37-0.37l8.46-0.2c4.51-0.11,8.11-3.8,8.11-8.33v-0.37c0-0.07,0-0.14,0.01-0.21v9.09
				l0.38-0.01c0.2,8.8,7.38,15.87,16.21,15.87C172.03,193.01,173.25,192.86,174.42,192.59z"/>
		</g>
		<polygon points="228.02,202.85 224.32,208.75 221.49,201.69 214.7,184.76 214.7,184.76 200.82,150.16 206.04,148.07 217.3,176.13 
			217.3,176.14 225.18,195.78 		"/>
		<polygon class="st1" points="266.96,139.79 264.77,143.28 257.52,143.28 261.75,136.53 		"/>
		<polygon points="264.31,144.87 228.02,202.85 224.32,208.75 221.49,201.69 225.18,195.78 257.06,144.87 		"/>
		<text transform="matrix(1 0 0 1 230.3767 202.685)"><tspan x="0" y="0" class="st1 st3 st4">ISUALIZER</tspan><tspan x="32.19" y="0" class="st1 st5 st4"> </tspan></text>
		<text transform="matrix(1 0 0 1 203.5114 202.685)" class="st1 st3 st4">ATA </text>
	</g>
</g>
</svg>
